<?xml version="1.0" standalone="no"?>
<!DOCTYPE svg PUBLIC "-//W3C//DTD SVG 20010904//EN"
 "http://www.w3.org/TR/2001/REC-SVG-20010904/DTD/svg10.dtd">
<svg version="1.0" xmlns="http://www.w3.org/2000/svg"
 width="793.000000pt" height="1280.000000pt" viewBox="0 0 793.000000 1280.000000"
 preserveAspectRatio="xMidYMid meet">
<metadata>
Created by potrace 1.15, written by Peter Selinger 2001-2017
</metadata>
<g transform="translate(0.000000,1280.000000) scale(0.100000,-0.100000)"
fill="#000000" stroke="none">
<path d="M950 12774 c-43 -8 -124 -36 -155 -53 -100 -53 -192 -168 -246 -304
-30 -78 -32 -88 -32 -227 -1 -125 2 -155 22 -220 39 -125 105 -240 137 -240 8
0 19 12 24 26 20 52 99 161 156 215 144 136 350 176 519 99 153 -69 174 -75
282 -75 98 0 102 1 139 31 106 85 68 261 -88 410 -128 123 -361 258 -543 315
-62 20 -171 31 -215 23z"/>
<path d="M2100 11985 c-48 -73 -124 -146 -184 -177 -100 -51 -157 -60 -416
-65 -275 -4 -320 -12 -630 -108 -184 -56 -359 -154 -487 -270 -64 -58 -156
-185 -190 -265 -61 -141 -68 -181 -67 -405 0 -185 3 -220 23 -295 52 -196 135
-402 166 -414 10 -3 31 20 66 72 86 128 139 192 239 293 199 199 438 339 695
407 237 63 354 81 550 85 120 2 201 8 220 16 17 7 66 19 110 27 112 19 169 37
250 75 235 114 377 274 392 441 11 118 -47 281 -133 377 -46 51 -148 123 -229
161 -27 13 -58 27 -67 31 -37 18 -227 79 -246 79 -13 0 -33 -21 -62 -65z"/>
<path d="M3081 11431 c-10 -6 -17 -42 -22 -113 -5 -56 -17 -126 -27 -155 -82
-231 -299 -403 -667 -528 -22 -8 -119 -41 -215 -75 -96 -34 -188 -65 -205 -70
-16 -5 -136 -45 -265 -89 -129 -45 -251 -85 -270 -90 -79 -22 -129 -40 -315
-113 -468 -184 -819 -463 -959 -762 -83 -176 -111 -360 -86 -553 34 -248 229
-599 399 -718 34 -23 43 -25 56 -15 8 7 15 17 15 22 0 11 67 128 126 219 231
356 640 679 1120 884 60 25 118 50 129 55 77 34 119 50 127 50 6 0 24 6 41 14
76 34 130 56 139 56 6 0 24 7 41 15 18 8 50 21 72 28 22 8 85 31 140 52 55 20
120 43 145 50 25 8 59 18 75 23 17 6 64 20 105 32 152 44 356 111 445 146 156
62 163 65 290 125 475 224 724 529 690 847 -17 162 -138 322 -345 457 -170
111 -354 182 -529 204 -102 13 -231 14 -250 2z"/>
<path d="M4562 10538 c-5 -8 -7 -42 -3 -83 8 -96 -3 -201 -29 -258 -48 -108
-176 -247 -330 -358 -91 -66 -212 -131 -430 -232 -64 -29 -439 -191 -490 -212
-121 -48 -221 -85 -231 -85 -6 0 -25 -6 -42 -14 -18 -8 -77 -33 -132 -56 -55
-22 -113 -46 -130 -54 -49 -22 -124 -52 -225 -91 -52 -20 -117 -46 -145 -57
-57 -23 -671 -327 -785 -389 -206 -112 -300 -173 -444 -292 -229 -189 -413
-455 -494 -717 -40 -127 -53 -196 -68 -349 -14 -139 -14 -170 0 -310 21 -215
58 -370 126 -531 70 -162 121 -238 240 -355 170 -166 310 -339 465 -574 l90
-136 47 -3 c77 -5 78 -3 78 308 0 338 21 501 96 740 29 92 51 155 63 178 5 9
20 40 32 67 119 266 376 579 649 791 285 220 456 316 925 519 149 64 284 123
300 130 17 8 75 32 130 55 55 23 114 47 130 55 17 7 72 29 123 49 50 20 131
52 180 71 48 19 91 35 95 35 33 0 355 146 482 218 370 211 607 479 655 740 5
30 13 58 16 64 4 5 9 33 13 61 5 44 10 53 40 71 73 42 162 16 215 -63 42 -63
62 -205 46 -321 -37 -254 -251 -492 -705 -782 -182 -117 -646 -354 -905 -463
-36 -15 -83 -35 -105 -45 -22 -10 -87 -34 -145 -55 -58 -20 -116 -41 -130 -47
-14 -5 -65 -23 -115 -39 -170 -53 -423 -152 -460 -179 -5 -4 -41 -24 -80 -45
-151 -81 -403 -272 -516 -391 -117 -124 -267 -324 -351 -469 -81 -139 -218
-447 -218 -491 0 -8 -5 -24 -10 -35 -6 -11 -20 -54 -31 -97 -117 -459 -118
-920 -2 -1422 13 -58 29 -118 34 -135 31 -103 61 -192 69 -207 6 -10 10 -23
10 -28 0 -33 199 -457 235 -500 6 -8 26 -41 44 -73 52 -92 230 -324 332 -431
140 -148 319 -297 489 -407 66 -43 246 -149 253 -149 3 0 31 -15 64 -33 118
-67 447 -201 613 -252 25 -7 59 -18 75 -24 17 -6 59 -19 95 -30 75 -22 284
-85 350 -105 25 -8 79 -24 120 -36 41 -13 101 -31 133 -41 31 -11 62 -19 67
-19 6 0 48 -18 95 -41 297 -142 557 -411 708 -732 68 -144 117 -323 117 -429
0 -82 12 -95 59 -66 152 91 272 234 337 399 59 152 69 223 68 484 -1 220 -3
249 -27 350 -31 136 -66 253 -96 320 -74 166 -136 272 -235 405 -134 182 -397
423 -626 576 -142 95 -175 115 -285 169 -163 81 -292 120 -520 160 -55 9 -147
25 -205 35 -333 58 -535 90 -569 90 -43 0 -180 49 -346 125 -16 8 -56 25 -87
40 -180 82 -384 269 -496 452 -81 134 -119 276 -167 623 -80 592 127 1107 651
1622 123 120 254 232 384 329 129 95 520 349 538 349 3 0 13 6 21 14 9 7 41
27 71 43 84 46 152 84 185 103 73 43 194 106 531 275 198 100 387 199 420 220
324 212 531 485 616 815 43 164 60 427 37 572 -21 135 -145 292 -281 355 -109
51 -187 66 -351 67 l-148 1 -38 67 c-58 98 -155 237 -210 299 -56 62 -209 175
-340 249 -130 74 -254 109 -279 78z"/>
<path d="M6442 9033 c-21 -32 -42 -94 -78 -232 -63 -245 -145 -397 -326 -602
-117 -133 -440 -388 -641 -507 -357 -212 -795 -534 -1126 -832 -619 -554 -946
-1016 -1015 -1429 -20 -121 -20 -158 4 -316 30 -205 114 -431 206 -556 52 -71
153 -161 233 -207 40 -23 76 -42 79 -42 4 0 20 -7 36 -15 97 -51 294 -99 611
-150 212 -34 342 -57 385 -70 25 -8 61 -16 80 -20 40 -7 247 -70 300 -90 334
-129 526 -232 745 -402 117 -91 293 -265 378 -375 212 -274 339 -566 404 -933
26 -144 26 -542 0 -670 -32 -160 -92 -348 -143 -447 -8 -14 -14 -31 -14 -36 0
-19 -81 -185 -118 -242 -87 -135 -177 -215 -278 -250 -97 -34 -133 -28 -264
40 -268 140 -278 144 -365 148 -69 2 -85 0 -119 -20 -94 -55 -136 -149 -143
-319 -5 -111 -4 -119 22 -178 15 -34 44 -76 65 -95 89 -80 267 -130 470 -130
286 -1 518 121 835 438 352 354 646 880 759 1361 20 81 46 295 46 375 0 101
57 329 165 665 14 44 35 112 46 150 12 39 27 88 35 110 7 22 17 58 22 80 6 22
21 83 35 135 56 213 87 432 87 607 0 98 -25 417 -34 444 -3 8 -10 51 -15 97
-12 99 -141 488 -196 595 -19 36 -19 67 0 131 20 68 72 308 80 371 3 28 13 86
20 130 19 106 45 473 45 632 0 430 -90 865 -249 1193 -132 273 -226 400 -413
561 -301 259 -489 527 -509 724 -15 164 -92 256 -147 178z m-727 -1658 c14
-13 25 -28 25 -32 0 -18 -43 -74 -140 -183 -56 -63 -122 -142 -145 -175 -122
-171 -284 -573 -378 -940 -53 -207 -84 -357 -117 -570 -6 -38 -18 -110 -27
-160 -10 -58 -17 -179 -21 -338 -5 -243 -5 -249 -28 -277 -30 -35 -53 -41 -91
-25 -51 22 -93 99 -175 316 -45 122 -88 405 -88 584 0 279 53 528 167 775 154
337 255 481 504 725 168 164 271 247 364 294 74 38 117 40 150 6z"/>
</g>
</svg>
